<svg width="40" height="40" viewBox="0 0 40 40" fill="none" xmlns="http://www.w3.org/2000/svg">
<rect width="40" height="40" fill="#0999D5"/>
<path d="M26.63 16.44V13.22C26.63 11.47 25.23 10 23.41 10C21.66 10 20.26 11.47 20.26 13.22V16.44H17.67C17.67 12.94 14.8 10.14 11.37 10.14C7.8 10.07 5 12.94 5 16.44C5 19.94 7.87 22.74 11.3 22.74V25.96C11.3 27.71 12.7 29.18 14.52 29.18C16.34 29.18 17.74 27.78 17.74 25.96V22.74H20.33C20.33 26.24 23.2 29.04 26.63 29.04C30.13 29.04 32.93 26.17 32.93 22.74C32.93 19.31 30.06 16.44 26.63 16.44ZM10.04 16.44C10.04 15.74 10.6 15.18 11.3 15.18C12 15.18 12.63 15.67 12.63 16.44C12.63 17.21 12.07 17.7 11.37 17.7C10.6 17.7 10.04 17.14 10.04 16.44ZM26.63 24C25.93 24 25.37 23.44 25.37 22.74C25.37 22.04 25.93 21.48 26.63 21.48C27.33 21.48 27.89 22.04 27.89 22.74C27.89 23.44 27.33 24 26.63 24ZM30.41 15.18C31.81 15.18 33 14.06 33 12.59C33 11.12 31.88 10 30.41 10C29.01 10 27.82 11.12 27.82 12.59C27.82 14.06 29.01 15.18 30.41 15.18Z" fill="white"/>
</svg>
