<svg width="40" height="40" viewBox="0 0 40 40" fill="none" xmlns="http://www.w3.org/2000/svg">
<rect width="40" height="40" fill="#366AF3"/>
<path fill-rule="evenodd" clip-rule="evenodd" d="M24.9236 30.1796C24.9241 30.1796 24.9246 30.1796 24.9251 30.1796C28.2958 30.3998 30.8644 29.2575 32.6307 26.7526C35.57 22.5863 34.0689 17.1751 29.7835 14.8043C29.1927 14.4775 28.5207 14.2759 27.8487 14.0744C27.5596 13.9877 27.0188 13.9165 26.7363 13.8199C26.4413 13.7191 26.4057 13.6933 26.1745 13.4828C25.6936 13.0408 25.2299 12.4642 24.752 12.0538C21.4284 9.20207 16.5633 9.47847 13.4891 12.456C12.8272 13.095 12.2984 13.9179 11.7837 14.7187C11.6396 14.943 11.4876 15.4013 11.343 15.6176C11.1557 15.8964 10.9115 15.8884 10.6149 16.0448C8.04866 17.3998 6.23293 19.2133 5.8936 22.1436C5.68911 23.9234 6.12506 25.7032 7.16551 27.1481C8.31607 28.7436 9.93255 29.7257 12.0149 30.1796C12.0157 30.1796 12.0164 30.1796 12.0171 30.1796C16.6239 30.1796 20.7812 30.1796 24.9236 30.1796ZM12.8369 17.6024C12.8895 17.5518 12.9276 17.4881 12.9475 17.4178C13.179 16.5976 13.4419 15.7863 13.9183 15.0785C16.3138 11.5122 21.4172 11.0223 24.2621 14.3706C24.5752 14.7391 24.8786 15.1257 25.1723 15.5302C25.2381 15.6205 25.3237 15.6948 25.4226 15.7473C25.5215 15.7999 25.631 15.8293 25.743 15.8335C27.1887 15.883 28.4202 16.256 29.4374 16.9526C32.5812 19.1054 33.0105 23.5729 30.3543 26.3369C28.7385 28.0178 26.7633 28.2043 24.5655 28.2335C20.4112 28.292 16.6921 28.289 13.4082 28.2245C11.3408 28.1826 9.79847 27.4073 8.78124 25.8987C7.18574 23.5324 7.73405 20.4515 10.006 18.7661C10.7745 18.1976 11.7341 17.9302 12.6487 17.7054C12.7194 17.6885 12.7844 17.653 12.8369 17.6024Z" fill="white"/>
</svg>
