<svg width="40" height="40" viewBox="0 0 40 40" fill="none" xmlns="http://www.w3.org/2000/svg">
<rect width="40" height="40" fill="#008375"/>
<path d="M24.4345 24.4095C24.5843 25.5335 24.5094 26.6575 24.3595 27.6317C24.2846 28.381 23.9849 29.1303 23.835 29.8796C23.1606 31.8279 22.2614 33.7012 20.8377 35.1249C20.538 35.4247 20.3132 35.5745 19.9385 35.4996C19.8636 35.4996 19.7886 35.4247 19.7886 35.3497C19.7137 35.1999 19.7886 34.9751 19.7886 34.6753C19.8636 34.3756 19.8636 34.2257 19.9385 33.926C20.6129 31.5282 21.1374 29.0554 21.0625 26.5077C21.0625 25.9831 20.9876 25.3837 20.6878 24.8591C20.3881 24.4095 19.9385 23.96 19.414 23.8101C19.0393 23.7352 18.7396 23.8101 18.5148 23.96C18.4398 24.0349 18.215 24.0349 18.1401 24.2597C17.9903 24.4095 17.8404 24.6343 17.7655 24.9341C17.4657 25.6834 17.6156 26.4327 17.6905 27.1821C17.7655 27.7066 17.6905 28.381 17.166 28.7557C16.7913 29.0554 16.2668 29.0554 15.6673 28.8306C15.2177 28.6807 14.8431 28.3061 14.5433 27.9314C13.7191 26.6575 13.7191 24.7842 14.1687 23.2856C14.2436 22.9858 14.3185 22.761 14.5433 22.4613C14.918 21.637 15.5924 20.9626 16.2668 20.513C17.9153 19.464 19.9385 19.464 21.7369 20.513C22.8609 21.1874 23.6102 22.0866 24.0598 23.2856C24.2846 23.5853 24.3595 23.96 24.4345 24.4095ZM35 12.72C35 13.0198 34.7003 13.2446 34.5504 13.4694C33.4264 14.3686 32.0776 15.0429 30.7288 15.5675C26.6825 17.216 22.0366 17.8155 17.6905 18.34C15.0679 18.7147 12.5951 18.8645 9.97244 19.0893C9.07325 19.1643 8.02419 18.6397 7.27486 18.1901C6.4506 17.7405 5.70127 17.0661 5.25167 16.1669C4.87701 15.4176 4.87701 14.4435 5.5514 13.7691C6.001 13.3195 6.82526 13.3944 7.49966 13.3944C8.24899 13.4694 8.99831 13.5443 9.59778 13.7691C10.7967 13.919 11.9207 14.1438 13.1196 14.2936C19.8636 15.1928 27.1321 14.8181 33.5013 12.3454C33.876 12.2704 34.1757 12.0456 34.5504 11.9707C34.6253 12.1206 35 12.3454 35 12.72Z" fill="white"/>
<path d="M16.4917 10.6226C16.4917 12.0464 17.6157 13.0954 19.1143 13.0954C20.5381 13.0954 21.737 11.9714 21.737 10.6226C21.737 10.4728 21.6621 10.248 21.6621 9.94825C21.5122 9.49866 21.2125 9.27386 21.2125 8.74933C21.2125 8 20.3133 8 19.7138 8C19.1893 8 18.5149 8.07493 18.0653 8.37466C17.6906 8.52453 17.316 8.82426 17.0162 9.27386C16.6416 9.57359 16.4917 10.0981 16.4917 10.6226Z" fill="white"/>
</svg>
